<svg xmlns="http://www.w3.org/2000/svg" viewBox="0 0 64 64" width="64" height="64">
  <defs>
    <radialGradient id="bg" cx="50%" cy="42%" r="55%">
      <stop offset="0%" stop-color="#ede0ff"/>
      <stop offset="100%" stop-color="#c5aaf0"/>
    </radialGradient>
    <radialGradient id="bl" cx="50%" cy="50%" r="50%">
      <stop offset="0%" stop-color="#f9b8c8" stop-opacity="0.85"/>
      <stop offset="100%" stop-color="#f9b8c8" stop-opacity="0"/>
    </radialGradient>
  </defs>
  <!-- 背景丸 -->
  <circle cx="32" cy="32" r="30" fill="#f0e8ff"/>
  <!-- 体 -->
  <ellipse cx="32" cy="36" rx="20" ry="20" fill="url(#bg)"/>
  <!-- 耳左 -->
  <ellipse cx="18" cy="18" rx="6" ry="8" fill="#daccf7" transform="rotate(-15,18,18)"/>
  <ellipse cx="19" cy="19" rx="2.8" ry="4.5" fill="#f9c6e2" transform="rotate(-15,19,19)"/>
  <!-- 耳右 -->
  <ellipse cx="46" cy="18" rx="6" ry="8" fill="#daccf7" transform="rotate(15,46,18)"/>
  <ellipse cx="45" cy="19" rx="2.8" ry="4.5" fill="#f9c6e2" transform="rotate(15,45,19)"/>
  <!-- 顔ベース -->
  <ellipse cx="32" cy="33" rx="17" ry="16" fill="#ede0ff"/>
  <!-- 目 -->
  <ellipse cx="26" cy="30" rx="2.8" ry="3" fill="#3a2e4a"/>
  <circle cx="27" cy="29" r="0.9" fill="white"/>
  <ellipse cx="38" cy="30" rx="2.8" ry="3" fill="#3a2e4a"/>
  <circle cx="39" cy="29" r="0.9" fill="white"/>
  <!-- 鼻 -->
  <ellipse cx="32" cy="34" rx="1.3" ry="1.1" fill="#b09ad4"/>
  <!-- 口（小さめあどけない） -->
  <path d="M29 37 Q32 40 35 37" stroke="#b09ad4" stroke-width="1.4" fill="none" stroke-linecap="round"/>
  <!-- ほっぺ -->
  <ellipse cx="22" cy="36" rx="5" ry="3.5" fill="url(#bl)"/>
  <ellipse cx="42" cy="36" rx="5" ry="3.5" fill="url(#bl)"/>
</svg>