<svg xmlns="http://www.w3.org/2000/svg" viewBox="0 0 64 64" width="64" height="64">
  <defs>
    <radialGradient id="bg" cx="50%" cy="42%" r="55%">
      <stop offset="0%" stop-color="#fff0e8"/>
      <stop offset="100%" stop-color="#ffb8a0"/>
    </radialGradient>
    <radialGradient id="bl" cx="50%" cy="50%" r="50%">
      <stop offset="0%" stop-color="#ffb8c8" stop-opacity="0.85"/>
      <stop offset="100%" stop-color="#ffb8c8" stop-opacity="0"/>
    </radialGradient>
  </defs>
  <circle cx="32" cy="32" r="30" fill="#fff5f0"/>
  <ellipse cx="32" cy="36" rx="20" ry="20" fill="url(#bg)"/>
  <ellipse cx="18" cy="18" rx="6" ry="8" fill="#ffd0b8" transform="rotate(-15,18,18)"/>
  <ellipse cx="19" cy="19" rx="2.8" ry="4.5" fill="#ffb8d8" transform="rotate(-15,19,19)"/>
  <ellipse cx="46" cy="18" rx="6" ry="8" fill="#ffd0b8" transform="rotate(15,46,18)"/>
  <ellipse cx="45" cy="19" rx="2.8" ry="4.5" fill="#ffb8d8" transform="rotate(15,45,19)"/>
  <ellipse cx="32" cy="33" rx="17" ry="16" fill="#fff0e8"/>
  <ellipse cx="26" cy="30" rx="2.8" ry="3" fill="#6a3a2a"/>
  <circle cx="27" cy="29" r="0.9" fill="white"/>
  <ellipse cx="38" cy="30" rx="2.8" ry="3" fill="#6a3a2a"/>
  <circle cx="39" cy="29" r="0.9" fill="white"/>
  <ellipse cx="32" cy="34" rx="1.3" ry="1.1" fill="#e09080"/>
  <path d="M29 37 Q32 40 35 37" stroke="#e09080" stroke-width="1.4" fill="none" stroke-linecap="round"/>
  <ellipse cx="22" cy="36" rx="5" ry="3.5" fill="url(#bl)"/>
  <ellipse cx="42" cy="36" rx="5" ry="3.5" fill="url(#bl)"/>
  <!-- 星のかざり -->
  <polygon points="32,8 33.5,13 38,13 34.5,16 36,21 32,18 28,21 29.5,16 26,13 30.5,13" fill="#ffe066" opacity="0.9"/>
</svg>